<svg xmlns="http://www.w3.org/2000/svg" width="356.159" height="45.177" viewBox="0 0 356.159 45.177">
  <g id="eggdrop" transform="translate(-2.609 -0.995)">
    <path id="패스_8" data-name="패스 8" d="M27.149,45.44H2.609V1.727H26.173V7.884H9.864V20.261H24.893v6.127H9.864V39.313H27.149Z"/>
    <path id="패스_9" data-name="패스 9" d="M77.65,42.453a31.274,31.274,0,0,1-15.212,3.719q-9.693,0-15.7-6.036T40.733,24.162q0-10.149,6.57-16.659T63.993,1A31.1,31.1,0,0,1,76.248,3.129V10.6A21.1,21.1,0,0,0,64.267,7.244a15.256,15.256,0,0,0-11.447,4.6,16.4,16.4,0,0,0-4.466,11.919q0,7.53,3.841,11.843t10.426,4.314a16.509,16.509,0,0,0,7.8-1.737V27.79H61.219v-6.1H77.65Z"/>
    <path id="패스_10" data-name="패스 10" d="M129.8,42.453a31.271,31.271,0,0,1-15.212,3.719q-9.693,0-15.7-6.036T92.881,24.162q0-10.149,6.569-16.659T116.14,1A31.1,31.1,0,0,1,128.4,3.129V10.6a21.1,21.1,0,0,0-11.98-3.353,15.256,15.256,0,0,0-11.447,4.6A16.4,16.4,0,0,0,100.5,23.766q0,7.53,3.841,11.843t10.426,4.314a16.5,16.5,0,0,0,7.8-1.737V27.79h-9.206v-6.1H129.8Z"/>
    <path id="패스_11" data-name="패스 11" d="M173.61,45.44V1.727h12.62q24.174,0,24.174,21.308,0,10.12-6.707,16.263T185.713,45.44Zm7.224-37.556V39.313h5.793q7.653,0,11.9-4.207t4.252-11.888q0-15.333-15.883-15.334Z"/>
    <path id="패스_12" data-name="패스 12" d="M260.783,45.44h-8.474l-6.981-11.706a24.277,24.277,0,0,0-1.845-2.758,11.092,11.092,0,0,0-1.829-1.875,6.179,6.179,0,0,0-2.026-1.067,8.461,8.461,0,0,0-2.47-.336h-2.927V45.44h-7.224V1.727H241.4a20.8,20.8,0,0,1,5.669.731,13.189,13.189,0,0,1,4.512,2.21,10.32,10.32,0,0,1,3,3.689,11.629,11.629,0,0,1,1.082,5.167,12.658,12.658,0,0,1-.685,4.252,11.06,11.06,0,0,1-1.952,3.445,11.934,11.934,0,0,1-3.048,2.576,15.223,15.223,0,0,1-4.008,1.645v.122a11.356,11.356,0,0,1,2.072,1.479q.885.809,1.677,1.661a19.9,19.9,0,0,1,1.57,1.937q.777,1.081,1.722,2.514ZM234.231,7.61V21.815h6.037a8.937,8.937,0,0,0,3.094-.518,7.064,7.064,0,0,0,2.453-1.493,6.768,6.768,0,0,0,1.617-2.378,8.178,8.178,0,0,0,.579-3.14,6.24,6.24,0,0,0-1.982-4.908,8.293,8.293,0,0,0-5.7-1.768Z"/>
    <path id="패스_13" data-name="패스 13" d="M291.9,46.172q-9.45,0-15.135-6.127T271.075,24.1q0-10.548,5.792-16.828T292.6,1q9.2,0,14.83,6.1t5.625,15.943q0,10.7-5.762,16.918T291.9,46.172Zm.335-38.806a12.164,12.164,0,0,0-9.77,4.481q-3.765,4.48-3.765,11.8,0,7.286,3.658,11.736a11.8,11.8,0,0,0,9.573,4.45,12.359,12.359,0,0,0,9.907-4.237q3.628-4.236,3.628-11.858,0-7.834-3.522-12.1A11.9,11.9,0,0,0,292.231,7.366Z"/>
    <path id="패스_14" data-name="패스 14" d="M336.91,29.589V45.44h-7.224V1.727h13.26q7.53,0,11.676,3.5t4.146,9.877a13.643,13.643,0,0,1-4.329,10.425q-4.329,4.054-11.706,4.055Zm0-21.888V23.675h4.7q4.665,0,7.1-2.164a7.724,7.724,0,0,0,2.438-6.1q0-7.713-8.961-7.713Z"/>
  </g>
</svg>
